<?xml version="1.0" standalone="no"?>
<!DOCTYPE svg PUBLIC "-//W3C//DTD SVG 20010904//EN"
 "http://www.w3.org/TR/2001/REC-SVG-20010904/DTD/svg10.dtd">
<svg version="1.0" xmlns="http://www.w3.org/2000/svg"
 width="512.000000pt" height="512.000000pt" viewBox="0 0 512.000000 512.000000"
 preserveAspectRatio="xMidYMid meet">

<g transform="translate(0.000000,512.000000) scale(0.100000,-0.100000)"
fill="#000000" stroke="none">
<path d="M1068 5101 c-132 -43 -198 -113 -287 -307 -242 -528 -387 -1114 -442
-1779 -16 -193 -16 -717 0 -910 55 -664 199 -1244 442 -1780 56 -123 71 -148
129 -206 47 -48 81 -72 125 -90 l60 -24 1465 0 1465 0 60 24 c44 18 78 42 125
90 58 58 73 83 129 206 243 536 387 1116 442 1780 16 193 16 717 0 910 -55
664 -199 1244 -442 1780 -56 123 -71 148 -129 206 -47 48 -81 72 -125 90 l-60
24 -1450 2 c-1377 2 -1453 1 -1507 -16z m222 -136 c0 -4 -7 -20 -17 -38 -9
-18 -35 -88 -58 -157 l-42 -125 -147 -3 -148 -3 8 23 c15 49 86 185 115 220
31 40 74 66 124 79 36 8 165 11 165 4z m716 -22 c-3 -16 -12 -75 -21 -133 -8
-58 -17 -120 -20 -137 l-6 -33 -314 0 c-173 0 -315 1 -315 3 0 1 16 46 35 100
56 156 79 194 135 216 14 5 133 10 269 10 l243 1 -6 -27z m953 -5 c9 -28 27
-137 45 -265 l5 -33 -449 0 -449 0 5 33 c18 128 36 237 45 265 l11 32 388 0
388 0 11 -32z m688 6 c38 -29 59 -68 105 -192 21 -58 38 -107 38 -109 0 -2
-11 -3 -24 -3 -65 0 -99 -79 -54 -127 l21 -23 287 0 287 0 30 -82 30 -83 -903
-3 c-497 -1 -1311 -1 -1808 0 l-903 3 30 83 30 82 1322 0 c728 0 1331 3 1340
6 28 11 46 58 34 92 -15 45 -44 52 -204 52 l-144 0 -6 33 c-3 17 -12 79 -20
137 -9 58 -18 118 -21 133 l-7 28 256 -3 c242 -3 257 -4 284 -24z m400 -3 c23
-11 56 -38 72 -59 29 -35 100 -171 115 -220 l8 -23 -148 3 -147 3 -42 125
c-23 69 -49 139 -58 157 -10 18 -17 35 -17 39 0 4 39 5 88 2 62 -4 100 -11
129 -27z m-3000 -788 c-24 -85 -78 -400 -101 -583 -84 -667 -84 -1353 0 -2020
23 -183 77 -498 101 -582 4 -17 -9 -18 -170 -18 l-174 0 -27 96 c-87 305 -144
619 -183 999 -21 211 -24 784 -5 980 38 380 99 737 172 995 10 36 24 84 30
108 l11 42 175 0 c162 0 175 -1 171 -17z m863 -5 c-1 -13 -5 -70 -10 -128 -69
-761 -69 -2159 0 -2920 5 -58 9 -115 10 -127 0 -23 0 -23 -164 -23 -90 0 -172
-3 -181 -6 -8 -4 -22 -19 -30 -34 -17 -33 -5 -83 23 -97 9 -4 645 -10 1413
-13 l1396 -5 -30 -83 -30 -82 -1747 0 -1747 0 -30 83 -30 82 279 5 c279 5 280
5 299 29 25 31 24 69 -3 98 -17 18 -32 23 -75 23 -29 0 -53 2 -53 4 0 2 -9 47
-20 101 -196 951 -196 2059 0 3010 11 54 20 99 20 101 0 2 160 4 355 4 l355 0
0 -22z m1154 -50 c16 -183 19 -199 38 -223 26 -34 71 -33 105 1 23 23 25 30
19 87 -3 34 -8 95 -12 135 l-6 72 356 0 c196 0 356 -2 356 -4 0 -2 9 -47 20
-101 196 -951 196 -2059 0 -3010 -11 -54 -20 -99 -20 -101 0 -2 -160 -4 -355
-4 l-355 0 0 23 c1 12 5 69 10 127 40 440 62 1260 50 1854 -10 476 -18 642
-32 678 -22 58 -119 52 -134 -8 -4 -15 -4 -83 0 -153 35 -621 19 -1728 -34
-2366 -5 -66 -10 -128 -10 -137 0 -17 -31 -18 -500 -18 -469 0 -500 1 -500 18
0 9 -5 71 -10 137 -23 271 -41 657 -49 1044 -13 601 7 1357 49 1866 5 66 10
128 10 138 0 16 30 17 499 17 l498 0 7 -72z m1366 30 c6 -24 20 -72 30 -108
73 -258 134 -615 172 -995 19 -196 16 -769 -5 -980 -39 -380 -96 -694 -183
-999 l-27 -96 -174 0 c-161 0 -174 1 -170 18 12 41 38 178 61 312 137 814 137
1746 0 2560 -23 134 -49 271 -61 313 -4 16 9 17 171 17 l175 0 11 -42z m-3215
-3778 c23 -69 49 -139 58 -157 10 -18 17 -35 17 -39 0 -4 -39 -5 -88 -2 -144
8 -195 47 -271 204 -21 44 -42 90 -45 102 l-8 23 148 -3 147 -3 42 -125z m750
98 c3 -18 12 -80 20 -138 9 -58 18 -118 21 -133 l7 -28 -256 3 c-323 4 -309
-4 -389 216 -21 58 -38 107 -38 109 0 2 142 3 315 3 l314 0 6 -32z m1039 0
c-18 -129 -36 -238 -45 -265 l-11 -33 -388 0 -388 0 -11 33 c-9 27 -27 136
-45 265 l-5 32 449 0 449 0 -5 -32z m786 29 c0 -2 -17 -51 -38 -109 -46 -124
-67 -163 -105 -192 -27 -20 -42 -21 -284 -24 l-256 -3 7 28 c3 15 12 75 21
133 8 58 17 120 20 138 l6 32 314 0 c173 0 315 -1 315 -3z m444 -19 c-3 -12
-24 -58 -45 -102 -76 -157 -127 -196 -271 -204 -49 -3 -88 -2 -88 2 0 4 8 23
19 44 10 20 35 89 56 152 21 63 40 118 42 123 2 4 69 7 149 7 145 0 145 0 138
-22z"/>
</g>
</svg>
