<?xml version="1.0" standalone="no"?>
<!DOCTYPE svg PUBLIC "-//W3C//DTD SVG 20010904//EN"
 "http://www.w3.org/TR/2001/REC-SVG-20010904/DTD/svg10.dtd">
<svg version="1.0" xmlns="http://www.w3.org/2000/svg"
 width="512.000000pt" height="512.000000pt" viewBox="0 0 512.000000 512.000000"
 preserveAspectRatio="xMidYMid meet">

<g transform="translate(0.000000,512.000000) scale(0.100000,-0.100000)"
fill="#000000" stroke="none">
<path d="M1258 5099 c-68 -36 -78 -70 -78 -280 0 -164 2 -187 21 -225 22 -47
82 -84 133 -84 27 0 28 -2 22 -37 -12 -67 -65 -156 -183 -309 -64 -82 -128
-174 -142 -204 l-26 -55 0 -1665 c0 -1878 -7 -1715 79 -1890 33 -68 58 -102
131 -176 97 -98 173 -144 269 -164 38 -8 357 -10 1087 -7 1129 3 1069 0 1193
61 141 70 274 232 333 406 17 52 18 132 21 1690 2 1153 0 1654 -8 1700 -16 94
-45 150 -152 290 -118 155 -165 227 -193 301 l-23 57 50 4 c55 6 92 28 126 78
21 31 22 42 22 225 0 183 -1 194 -22 225 -13 18 -36 43 -51 54 l-28 21 -1272
2 c-1251 2 -1273 2 -1309 -18z m2520 -281 l-3 -143 -1212 -3 -1213 -2 0 145 0
145 1215 0 1216 0 -3 -142z m-180 -380 c28 -94 87 -193 222 -373 60 -80 115
-162 122 -183 17 -50 25 -3212 8 -3310 -27 -155 -130 -295 -270 -365 l-65 -32
-1054 -3 -1055 -2 -55 27 c-81 39 -181 144 -224 234 -65 138 -62 37 -62 1799
0 883 3 1621 8 1640 4 22 41 79 98 150 168 214 249 355 249 436 0 58 -81 54
1034 54 l1022 0 22 -72z"/>
<path d="M3618 2316 c-10 -7 -22 -25 -28 -40 -6 -18 -10 -253 -10 -679 -1
-713 -1 -713 -60 -834 -17 -34 -48 -84 -69 -110 -124 -159 -141 -185 -141
-217 0 -61 75 -98 123 -62 39 30 200 245 233 311 18 39 44 106 56 150 21 78
22 97 26 735 2 360 1 670 -3 687 -11 62 -81 94 -127 59z"/>
</g>
</svg>
