<?xml version="1.0" standalone="no"?>
<!DOCTYPE svg PUBLIC "-//W3C//DTD SVG 20010904//EN"
 "http://www.w3.org/TR/2001/REC-SVG-20010904/DTD/svg10.dtd">
<svg version="1.0" xmlns="http://www.w3.org/2000/svg"
 width="512.000000pt" height="512.000000pt" viewBox="0 0 512.000000 512.000000"
 preserveAspectRatio="xMidYMid meet">

<g transform="translate(0.000000,512.000000) scale(0.100000,-0.100000)"
fill="#000000" stroke="none">
<path d="M1360 5109 c-454 -31 -826 -110 -1013 -215 -117 -66 -187 -158 -187
-244 0 -14 9 -45 20 -69 l20 -44 -43 -46 c-68 -74 -117 -146 -138 -206 -18
-53 -19 -100 -19 -1787 l0 -1733 24 -51 c15 -32 44 -68 80 -99 l56 -49 0 -89
c0 -121 14 -161 75 -223 92 -92 244 -158 510 -221 l120 -28 850 0 850 0 120
28 c154 37 312 89 389 130 80 42 168 129 184 183 7 23 12 82 12 131 l0 89 56
49 c36 31 65 67 80 99 l24 51 0 1737 c0 1681 -1 1739 -19 1788 -22 56 -92 159
-144 209 l-35 33 19 42 c74 163 -70 314 -396 412 -342 104 -991 157 -1495 123z
m584 -199 c450 -20 801 -81 1000 -174 94 -44 124 -69 110 -92 -16 -28 -120
-80 -221 -113 -458 -148 -1374 -178 -1968 -64 -231 44 -406 103 -475 161 -33
27 -22 46 55 88 177 98 568 173 1007 193 253 12 254 12 492 1z m-1389 -578
c249 -75 512 -114 922 -134 330 -16 738 4 1043 53 175 28 416 91 492 130 21
11 45 19 55 19 20 -1 116 -107 145 -160 17 -33 18 -102 18 -1738 l0 -1703 -23
-23 c-112 -112 -521 -213 -1032 -257 -180 -15 -728 -16 -915 0 -328 27 -633
81 -824 148 -108 37 -210 93 -226 123 -7 12 -10 609 -10 1715 l0 1696 21 42
c12 23 49 70 82 104 l59 62 47 -23 c25 -13 91 -37 146 -54z m-91 -3886 c177
-54 464 -102 761 -128 191 -16 805 -16 985 0 315 29 587 74 755 127 101 31
105 31 105 -2 -1 -49 -41 -82 -160 -130 -371 -152 -1180 -208 -1825 -127 -259
32 -472 83 -599 143 -94 43 -126 72 -126 113 0 34 4 34 104 4z"/>
<path d="M1665 4705 c-14 -13 -25 -36 -25 -50 0 -14 11 -37 25 -50 l24 -25
461 0 461 0 24 25 c14 13 25 36 25 50 0 14 -11 37 -25 50 l-24 25 -461 0 -461
0 -24 -25z"/>
</g>
</svg>
