<?xml version="1.0" standalone="no"?>
<!DOCTYPE svg PUBLIC "-//W3C//DTD SVG 20010904//EN"
 "http://www.w3.org/TR/2001/REC-SVG-20010904/DTD/svg10.dtd">
<svg version="1.0" xmlns="http://www.w3.org/2000/svg"
 width="512.000000pt" height="512.000000pt" viewBox="0 0 512.000000 512.000000"
 preserveAspectRatio="xMidYMid meet">

<g transform="translate(0.000000,512.000000) scale(0.100000,-0.100000)"
fill="#000000" stroke="none">
<path d="M160 4712 l0 -408 46 -44 c97 -95 174 -225 221 -377 l28 -88 0 -1235
0 -1235 -28 -88 c-47 -152 -124 -282 -221 -377 l-46 -44 0 -408 0 -408 2400 0
2400 0 0 408 0 408 -46 44 c-97 95 -174 225 -221 377 l-28 88 0 1235 0 1235
28 88 c47 152 124 282 221 377 l46 44 0 408 0 408 -2400 0 -2400 0 0 -408z
m4500 -42 l0 -150 -2100 0 -2100 0 0 150 0 150 2100 0 2100 0 0 -150z m-184
-517 c-45 -92 -84 -218 -102 -333 -21 -141 -21 -2379 0 -2520 18 -115 57 -241
102 -332 l34 -68 -1950 0 -1950 0 34 68 c45 91 84 217 102 332 21 141 21 2379
0 2520 -18 115 -57 241 -102 333 l-34 67 1950 0 1950 0 -34 -67z m184 -3703
l0 -150 -2100 0 -2100 0 0 150 0 150 2100 0 2100 0 0 -150z"/>
</g>
</svg>
